<svg width="139" height="40" viewBox="0 0 139 40" fill="none" xmlns="http://www.w3.org/2000/svg">
<path d="M25.912 13.512L17.896 39H8.92004L0.712036 13.512H8.96804L13.48 33.24L18.184 13.512H25.912Z" fill="black"/>
<path d="M47.7633 31.608C47.7633 32.568 47.8913 33.272 48.1473 33.72C48.4353 34.168 48.8833 34.504 49.4913 34.728L47.9073 39.672C46.3393 39.544 45.0593 39.208 44.0673 38.664C43.0753 38.088 42.3073 37.192 41.7633 35.976C40.0993 38.536 37.5393 39.816 34.0833 39.816C31.5553 39.816 29.5393 39.08 28.0353 37.608C26.5313 36.136 25.7793 34.216 25.7793 31.848C25.7793 29.064 26.8033 26.936 28.8513 25.464C30.8993 23.992 33.8593 23.256 37.7313 23.256H40.3233V22.152C40.3233 20.648 40.0033 19.624 39.3633 19.08C38.7233 18.504 37.6033 18.216 36.0033 18.216C35.1713 18.216 34.1633 18.344 32.9793 18.6C31.7953 18.824 30.5793 19.144 29.3313 19.56L27.6033 14.568C29.2033 13.96 30.8353 13.496 32.4993 13.176C34.1953 12.856 35.7633 12.696 37.2033 12.696C40.8513 12.696 43.5233 13.448 45.2193 14.952C46.9153 16.456 47.7633 18.712 47.7633 21.72V31.608ZM36.2913 34.392C38.0193 34.392 39.3633 33.576 40.3233 31.944V27.432H38.4513C36.7233 27.432 35.4273 27.736 34.5633 28.344C33.7313 28.952 33.3153 29.896 33.3153 31.176C33.3153 32.2 33.5713 33 34.0833 33.576C34.6273 34.12 35.3633 34.392 36.2913 34.392Z" fill="black"/>
<path d="M60.1034 39.816C57.8954 39.816 56.1674 39.192 54.9194 37.944C53.7034 36.664 53.0954 34.856 53.0954 32.52V3.38399L60.6794 2.56799V32.232C60.6794 33.288 61.1114 33.816 61.9754 33.816C62.4234 33.816 62.8394 33.736 63.2234 33.576L64.7114 38.952C63.3354 39.528 61.7994 39.816 60.1034 39.816Z" fill="black"/>
<path d="M95.7614 12.696C97.7774 12.696 99.3934 13.384 100.609 14.76C101.825 16.104 102.433 17.976 102.433 20.376V39H94.8494V21.672C94.8494 19.4 94.1294 18.264 92.6894 18.264C91.8894 18.264 91.1854 18.536 90.5774 19.08C89.9694 19.624 89.3774 20.456 88.8014 21.576V39H81.2174V21.672C81.2174 19.4 80.4974 18.264 79.0574 18.264C78.2894 18.264 77.5854 18.552 76.9454 19.128C76.3374 19.672 75.7454 20.488 75.1694 21.576V39H67.5854V13.512H74.2094L74.7374 16.488C75.7294 15.208 76.8174 14.264 78.0014 13.656C79.2174 13.016 80.5934 12.696 82.1294 12.696C83.5694 12.696 84.8014 13.048 85.8254 13.752C86.8814 14.456 87.6494 15.448 88.1294 16.728C89.1534 15.352 90.2734 14.344 91.4894 13.704C92.7374 13.032 94.1614 12.696 95.7614 12.696Z" fill="black"/>
<path d="M115.716 13.512V39H108.132V13.512H115.716ZM111.876 0.071991C113.188 0.071991 114.26 0.487991 115.092 1.31999C115.956 2.11999 116.388 3.14399 116.388 4.39199C116.388 5.63999 115.956 6.67999 115.092 7.51199C114.26 8.31199 113.188 8.71199 111.876 8.71199C110.564 8.71199 109.492 8.31199 108.66 7.51199C107.828 6.67999 107.412 5.63999 107.412 4.39199C107.412 3.14399 107.828 2.11999 108.66 1.31999C109.492 0.487991 110.564 0.071991 111.876 0.071991Z" fill="black"/>
<path d="M135.503 12.792C136.431 12.792 137.279 12.904 138.047 13.128L136.847 20.472C135.887 20.248 135.119 20.136 134.543 20.136C133.039 20.136 131.887 20.664 131.087 21.72C130.319 22.744 129.711 24.296 129.263 26.376V39H121.679V13.512H128.303L128.927 18.456C129.503 16.696 130.367 15.32 131.519 14.328C132.703 13.304 134.031 12.792 135.503 12.792Z" fill="black"/>
</svg>
